<?xml version="1.0" encoding="utf-8"?>
<!-- Generator: Adobe Illustrator 26.0.2, SVG Export Plug-In . SVG Version: 6.00 Build 0)  -->
<svg version="1.1" id="レイヤー_1" xmlns="http://www.w3.org/2000/svg" xmlns:xlink="http://www.w3.org/1999/xlink" x="0px"
	 y="0px" viewBox="0 0 199 110" style="enable-background:new 0 0 199 110;" xml:space="preserve">
<style type="text/css">
	.st0{fill:#222222;}
	.st1{fill:#FF5C5C;}
	.st2{fill:#A8A8A8;}
	.st3{fill:#FFBD4A;}
</style>
<g>
	<g>
		<g>
			<path class="st0" d="M11.1,48.4c-0.7,0-1.7-0.2-2.9-0.6c-0.5-0.2-1-0.3-1.5-0.5l0.8-2l0.7-2c1.4,0.5,2.3,0.8,2.9,0.8
				c0.9,0,7.8-0.6,20.6-1.7l2.1,3c-0.1,0.2-0.2,0.5-0.4,0.9s-0.6,1-1.3,1.9s-1.4,1.7-2.2,2.5c-0.8,0.8-1.9,1.7-3.4,2.6
				c-1.4,0.9-2.9,1.7-4.5,2.3c-0.4,1.9-1.1,3.9-2,5.7c-1.8,3.6-4.6,6.9-8.2,9.8l-2.6-3.3c2.8-2.2,5-4.7,6.6-7.5s2.4-5.6,2.5-8.4
				c-0.3-0.6-0.9-1.3-1.7-2.3l2.2-1.8C14.1,48.2,11.6,48.4,11.1,48.4z M22.2,50.9c2-1,3.8-2.3,5.3-3.8c-2.7,0.2-5.1,0.4-7.2,0.6
				c0.2,0.3,0.4,0.6,0.6,0.8C21.7,49.5,22.1,50.3,22.2,50.9z"/>
		</g>
	</g>
</g>
<g>
	<g>
		<g>
			<path class="st0" d="M64.9,66.5c-2.7,1.7-5.4,3-8.2,4l-1.4-4c4.2-1.5,8.2-3.8,12-7s6.8-6.9,9.2-11.1c-1,0.1-1.9,0.3-2.8,0.4
				c-4.8,0.7-7.5,1-8.1,0.9c-0.7-0.1-2-0.6-3.8-1.4l1.8-3.8c1.2,0.6,2.1,0.9,2.6,1.1c1.4-0.1,5.9-0.7,13.7-1.8l2.2,2.9
				c-1.7,3.9-4.1,7.5-7,10.9c3.4,2.5,6.1,5.1,7.9,8l-3.5,2.2c-1.6-2.5-4-4.9-7.2-7.1c-0.1,0.1-0.2,0.2-0.3,0.3
				C69.8,63,67.4,64.9,64.9,66.5z"/>
		</g>
	</g>
</g>
<g>
	<g>
		<g>
			<path class="st0" d="M113.1,48.4l0.8-2c1.2,0.5,2.1,0.8,2.6,0.8c1.4,0,6.4-0.2,15-0.7l2.5-0.1l-1.7,17.1c0.3,0,0.6,0,0.9,0
				l-0.1,4.2c-2.5-0.1-6.6,0.1-12.3,0.5c-2.1,0.2-3.3,0.2-3.7,0.2c-0.5,0-1.4-0.2-2.8-0.7c-0.6-0.2-1.1-0.4-1.6-0.6l1.5-3.9
				c1.4,0.6,2.4,0.9,3,1c0.4,0,1.5-0.1,3.3-0.2c3.2-0.2,5.8-0.4,7.6-0.5l1.3-12.8c-7.3,0.4-11.6,0.6-12.8,0.6
				c-0.6,0-1.6-0.2-2.8-0.6c-0.5-0.2-1-0.4-1.4-0.6L113.1,48.4z"/>
		</g>
	</g>
</g>
<g>
	<g>
		<g>
			<path class="st0" d="M190.3,48.6c-1.9,3.1-4.1,6-6.8,8.7c-2.1,2.2-4.4,4.3-7,6.2c-2.9,2.2-5.5,3.9-7.8,5l-3-1.9V49.9
				c-0.2-0.3-0.5-0.8-0.9-1.2L168,46c0.3,0.3,0.6,0.7,0.8,1c0.7,1,1,1.9,1,2.6V63c1.4-0.9,2.8-1.8,4.1-2.9
				c5.3-4.1,9.6-8.7,12.7-13.8L190.3,48.6z"/>
		</g>
	</g>
</g>
<g>
	<g>
		<g>
			<path class="st0" d="M9.2,101.4v-4.9H18v4.9H9.2z M18,90.4v4.8H9.2v-4.8H18z M7.9,89.1v14.7h1.3v-1.1H18v1.1h1.4V89.1H7.9z"/>
		</g>
	</g>
</g>
<g>
	<g>
		<g>
			<path class="st0" d="M33.4,96.3h-3.1l0.6-0.2c-0.1-0.6-0.4-1.6-0.8-2.3h3.4c-0.2,0.7-0.6,1.7-0.9,2.3L33.4,96.3z M32.4,90.9H35
				v-1.1h-2.6V88h-1.2v1.8h-2.7v1.1h2.7v1.7h-3.3v1.1H30L29.1,94c0.3,0.7,0.6,1.6,0.7,2.3h-1.7v1.1h3.1v1.9h-2.9v1.1h2.9v3.6h1.2
				v-3.6h2.8v-1.1h-2.8v-1.9h3v-1.1h-1.7c0.3-0.6,0.7-1.5,1-2.3l-0.8-0.2h1.8v-1.1h-3.2L32.4,90.9L32.4,90.9z M37.5,95.8h0.2
				c0.5,1.8,1.3,3.5,2.3,5c-0.7,0.9-1.5,1.7-2.4,2.4L37.5,95.8L37.5,95.8z M42.1,95.8c-0.3,1.4-0.8,2.7-1.5,3.9
				c-0.8-1.2-1.4-2.5-1.9-3.9H42.1z M42.7,94.6l-0.2,0.1h-5V90h4.4v2.2c0,0.2-0.1,0.3-0.4,0.3c-0.3,0-1.2,0-2.3,0
				c0.2,0.3,0.4,0.8,0.4,1.1c1.3,0,2.2,0,2.8-0.2s0.7-0.5,0.7-1.2v-3.4h-6.8v15.3h1.2v-0.8c0.3,0.2,0.7,0.6,0.8,0.9
				c0.9-0.6,1.7-1.4,2.4-2.3c0.8,0.9,1.6,1.7,2.6,2.2c0.2-0.3,0.6-0.8,0.9-1.1c-1-0.5-2-1.3-2.8-2.2c1.1-1.7,1.8-3.7,2.1-5.8
				L42.7,94.6z"/>
		</g>
	</g>
</g>
<g>
	<g>
		<g>
			<path class="st0" d="M63.1,100.7v1.7h-8.3v-1.7H63.1z M61.9,96v1.5h-7.1V96H61.9z M54.8,98.5h8.4V95h-9.7v9.1h1.2v-0.6H63v0.6
				h1.3v-4.3h-9.6v-1.3H54.8z M66.3,89.3h-6c0.2-0.4,0.4-0.7,0.5-1.1l-1.2-0.3c-0.4,0.9-0.9,1.7-1.6,2.4v-1h-4.6
				c0.2-0.4,0.4-0.7,0.5-1.1l-1.2-0.3c-0.5,1.4-1.5,2.8-2.5,3.7c0.3,0.2,0.8,0.5,1.1,0.7c0.5-0.5,1-1.1,1.5-1.9h0.8
				c0.3,0.6,0.7,1.3,0.8,1.8l1.2-0.4c-0.1-0.4-0.4-0.9-0.7-1.4H58c-0.3,0.4-0.7,0.7-1.1,1c0.2,0.1,0.5,0.2,0.7,0.4v1.1H51v3.3h1.2
				v-2.3h12.3v2.3h1.3v-3.3h-6.9v-1.4h-0.3c0.3-0.3,0.7-0.7,1-1.1H61c0.5,0.6,1,1.3,1.2,1.9l1.2-0.4c-0.2-0.4-0.6-1-1-1.4h3.9V89.3z
				"/>
		</g>
	</g>
</g>
<g>
	<g>
		<g>
			<path class="st0" d="M78.1,99.2l-1.9,0.6v-4.4H78v-1.2h-1.8v-3.8h2v-1.2h-5.5v1.2H75v3.8h-2v1.2h2v4.7c-0.9,0.3-1.7,0.5-2.4,0.7
				l0.3,1.3c1.6-0.5,3.6-1.2,5.5-1.8L78.1,99.2z M80.3,93.2H83v2.3h-2.7V93.2z M80.3,89.9H83v2.2h-2.7V89.9z M86.8,92.1h-2.7v-2.2
				h2.7V92.1z M86.8,95.4h-2.7v-2.3h2.7V95.4z M84.2,102.3v-2.4h4.1v-1.2h-4.1v-2.1H88v-7.9h-9v7.9h3.8v2.1h-4v1.2h4v2.4h-5.4v1.2
				h11.4v-1.2H84.2z"/>
		</g>
	</g>
</g>
<g>
	<g>
		<g>
			<path class="st0" d="M99.6,89.1l-0.8,1.2c1,0.6,2.9,1.9,3.8,2.5l0.8-1.2C102.7,91.1,100.7,89.7,99.6,89.1z M97,101.7l0.8,1.4
				c1.6-0.3,4.1-1.2,5.9-2.2c2.8-1.7,5.2-3.9,6.8-6.3l-0.8-1.4c-1.4,2.5-3.8,4.8-6.7,6.5C101.1,100.7,98.9,101.4,97,101.7z M97,93.1
				l-0.8,1.2c1.1,0.5,3,1.8,3.8,2.4l0.8-1.2C100.1,94.9,98,93.7,97,93.1z"/>
		</g>
	</g>
</g>
<g>
	<g>
		<g>
			<path class="st0" d="M129.9,90.2c-0.3,0.1-0.7,0.2-1.3,0.2h-6.8c-0.5,0-1.5-0.1-1.8-0.1v1.6c0.2,0,1.2-0.1,1.8-0.1h6.9
				c-0.4,1.4-1.7,3.5-2.9,4.9c-1.8,2-4.4,4.1-7.3,5.2l1.1,1.2c2.6-1.2,5-3.1,6.9-5.2c1.8,1.6,3.7,3.7,4.9,5.2l1.2-1.1
				c-1.1-1.4-3.3-3.7-5.2-5.3c1.3-1.6,2.4-3.7,3-5.2c0.1-0.2,0.3-0.6,0.4-0.8L129.9,90.2z"/>
		</g>
	</g>
</g>
<g>
	<g>
		<g>
			<path class="st0" d="M151.6,91.1c0.5,0,1.1,0,1.6,0.1v-1.5c-0.5,0.1-1.1,0.1-1.6,0.1h-7.1c-0.6,0-1.1-0.1-1.6-0.1v1.5
				c0.4,0,1-0.1,1.6-0.1H151.6z M142.3,94.2c-0.5,0-1.1,0-1.5-0.1v1.5c0.5,0,1,0,1.5,0h5.3c-0.1,1.7-0.2,3.1-1,4.4
				c-0.7,1.1-2,2.1-3.3,2.7l1.3,1c1.5-0.8,2.8-2,3.5-3.2c0.7-1.3,1-2.9,1-4.8h4.8c0.4,0,1,0,1.4,0v-1.5c-0.4,0.1-1,0.1-1.4,0.1
				L142.3,94.2L142.3,94.2z"/>
		</g>
	</g>
</g>
<g>
	<g>
		<g>
			<path class="st0" d="M178,102.6c-0.7-1.8-2.6-5.4-3.9-7.2l-1.3,0.6c0.7,0.8,1.4,2.2,2.1,3.6c-1.9,0.2-5.3,0.6-7.9,0.9
				c0.9-2.3,2.6-7.7,3.1-9.4c0.2-0.7,0.4-1.2,0.6-1.6l-1.7-0.4c-0.1,0.5-0.1,0.9-0.4,1.7c-0.5,1.7-2.3,7.4-3.3,9.8
				c-0.3,0-0.6,0-0.9,0.1c-0.5,0-1.1,0-1.6,0l0.3,1.6c0.5-0.1,1-0.2,1.5-0.2c2.4-0.2,8.3-0.9,11-1.2c0.4,0.9,0.7,1.7,1,2.3
				L178,102.6z"/>
		</g>
	</g>
</g>
<path class="st1" d="M16,5.4c-0.7,0-1.5,0.1-2.2,0.2S12.4,6,11.7,6.2c-0.7,0.3-1.3,0.6-2,1S8.5,8.2,8,8.7s-1,1.1-1.4,1.7
	c-0.4,0.6-0.8,1.3-1,2S5.1,13.8,5,14.5c-0.1,0.7-0.2,1.5-0.2,2.2s0.1,1.5,0.2,2.2s0.4,1.4,0.6,2.1c0.3,0.7,0.6,1.3,1,2
	C7,23.6,7.5,24.2,8,24.7s1.1,1,1.7,1.4s1.3,0.8,2,1c0.7,0.3,1.4,0.5,2.1,0.6s1.5,0.2,2.2,0.2s1.5-0.1,2.2-0.2
	c0.7-0.1,1.4-0.4,2.1-0.6c0.7-0.3,1.3-0.6,2-1s1.2-0.9,1.7-1.4s1-1.1,1.4-1.7s0.8-1.3,1-2c0.3-0.7,0.5-1.4,0.6-2.1s0.2-1.5,0.2-2.2
	c0-0.7-0.1-1.5-0.2-2.2s-0.4-1.4-0.6-2.1s-0.6-1.3-1-2C25,9.8,24.5,9.2,24,8.7s-1.1-1-1.7-1.4s-1.3-0.8-2-1
	c-0.7-0.3-1.4-0.5-2.1-0.6C17.5,5.5,16.7,5.4,16,5.4z"/>
<path class="st2" d="M52.2,5.4c-0.7,0-1.5,0.1-2.2,0.2S48.6,6,47.9,6.2c-0.7,0.3-1.3,0.6-2,1s-1.2,0.9-1.7,1.4s-1,1.1-1.4,1.7
	c-0.4,0.6-0.8,1.3-1,2c-0.3,0.7-0.5,1.4-0.6,2.1S41,15.9,41,16.6s0.1,1.5,0.2,2.2c0.1,0.7,0.4,1.4,0.6,2.1c0.3,0.7,0.6,1.3,1,2
	c0.4,0.6,0.9,1.2,1.4,1.7s1.1,1,1.7,1.4s1.3,0.8,2,1c0.7,0.3,1.4,0.5,2.1,0.6c0.7,0.1,1.5,0.2,2.2,0.2s1.5-0.1,2.2-0.2
	s1.4-0.4,2.1-0.6c0.7-0.3,1.3-0.6,2-1s1.2-0.9,1.7-1.4s1-1.1,1.4-1.7s0.8-1.3,1-2c0.3-0.7,0.5-1.4,0.6-2.1s0.2-1.5,0.2-2.2
	s-0.1-1.5-0.2-2.2s-0.4-1.4-0.6-2.1c-0.3-0.7-0.6-1.3-1-2c-0.4-0.6-0.9-1.2-1.4-1.7s-1.1-1-1.7-1.4s-1.3-0.8-2-1
	c-0.7-0.3-1.4-0.5-2.1-0.6S52.9,5.4,52.2,5.4z"/>
<path class="st3" d="M88.4,5.4c-0.7,0-1.5,0.1-2.2,0.2C85.4,5.8,84.7,6,84,6.2c-0.7,0.3-1.3,0.6-2,1s-1.2,0.9-1.7,1.4
	s-1,1.1-1.4,1.7c-0.4,0.6-0.8,1.3-1,2c-0.3,0.7-0.5,1.4-0.6,2.1c-0.1,0.7-0.2,1.5-0.2,2.2s0.1,1.5,0.2,2.2s0.4,1.4,0.6,2.1
	c0.3,0.7,0.6,1.3,1,2c0.4,0.6,0.9,1.2,1.4,1.7s1.1,1,1.7,1.4s1.3,0.8,2,1c0.7,0.3,1.4,0.5,2.1,0.6s1.5,0.2,2.2,0.2s1.5-0.1,2.2-0.2
	s1.4-0.4,2.1-0.6c0.7-0.3,1.3-0.6,2-1s1.2-0.9,1.7-1.4s1-1.1,1.4-1.7s0.8-1.3,1-2c0.3-0.7,0.5-1.4,0.6-2.1s0.2-1.5,0.2-2.2
	c0-0.7-0.1-1.5-0.2-2.2s-0.4-1.4-0.6-2.1c-0.3-0.7-0.6-1.3-1-2c-0.4-0.6-0.9-1.2-1.4-1.7s-1.1-1-1.7-1.4s-1.3-0.8-2-1
	c-0.6-0.2-1.3-0.4-2-0.6S89.1,5.4,88.4,5.4z"/>
</svg>
